<svg id="Layer_3" height="300" viewBox="0 0 64 64" width="300" xmlns="http://www.w3.org/2000/svg" data-name="Layer 3" version="1.1" xmlns:xlink="http://www.w3.org/1999/xlink" xmlns:svgjs="http://svgjs.dev/svgjs"><g width="100%" height="100%" transform="matrix(1,0,0,1,0,0)"><path d="m50 41.6v20.4h-36v-20.4l18-15.6z" fill="#21a4e7" fill-opacity="1" data-original-color="#f7dddfff" stroke="none" stroke-opacity="1"/><path d="m32 26 18 15.6v20.4h-18" fill="#21a4e7" fill-opacity="1" data-original-color="#e0cacdff" stroke="none" stroke-opacity="1"/><path d="m24 39h16v16h-16z" fill="#ffffff" fill-opacity="1" data-original-color="#d8a148ff" stroke="none" stroke-opacity="1"/><path d="m40 53.95v-14.95h-14.95a15.978 15.978 0 0 0 14.95 14.95z" fill="#ffffff" fill-opacity="1" data-original-color="#f6b94dff" stroke="none" stroke-opacity="1"/><path d="m37 7a5 5 0 0 0 -10 0c0 2.761 5 9 5 9s5-6.239 5-9z" fill="#ff4c51" fill-opacity="1" data-original-color="#f58b8eff" stroke="none" stroke-opacity="1"/><path d="m32 16s5-6.239 5-9a5 5 0 0 0 -5-5" fill="#ef5735" fill-opacity="1" data-original-color="#ef5735ff" stroke="none" stroke-opacity="1"/><path d="m56 40.8v6l-6-5.2-18-15.6-18 15.6-6 5.2v-6l24-20.8z" fill="#0f172a" fill-opacity="1" data-original-color="#3648bbff" stroke="none" stroke-opacity="1"/><path d="m32 20 24 20.8v6l-6-5.2-18-15.6" fill="#0f172a" fill-opacity="1" data-original-color="#0a1487ff" stroke="none" stroke-opacity="1"/><path d="m32 9a2 2 0 1 1 2-2 2 2 0 0 1 -2 2z" fill="#ffffff" fill-opacity="1" data-original-color="#9dcb6cff" stroke="none" stroke-opacity="1"/><path d="m30 39v7h4v-7" fill="#85deff" fill-opacity="1" data-original-color="#c1a46bff" stroke="none" stroke-opacity="1"/></g></svg>