<svg version="1.1" id="svg3249" xml:space="preserve" width="300" height="300" viewBox="0 0 682.66669 682.66669" xmlns="http://www.w3.org/2000/svg" xmlns:svg="http://www.w3.org/2000/svg" xmlns:xlink="http://www.w3.org/1999/xlink" xmlns:svgjs="http://svgjs.dev/svgjs"><g width="100%" height="100%" transform="matrix(1,0,0,1,0,0)"><defs id="defs3253"><clipPath clipPathUnits="userSpaceOnUse" id="clipPath3263"><path d="M 0,512 H 512 V 0 H 0 Z" id="path3261" fill="#0f172a" fill-opacity="1" data-original-color="#000000ff" stroke="none" stroke-opacity="1"/></clipPath></defs><g id="g3255" transform="matrix(1.3333333,0,0,-1.3333333,0,682.66667)"><g id="g3257"><g id="g3259" clip-path="url(#clipPath3263)"><g id="g3265" transform="translate(502,226)"><path d="m 0,0 c 0,108.248 -87.752,196 -196,196 -108.248,0 -196,-87.752 -196,-196 0,-108.248 87.752,-196 196,-196 108.248,0 196,87.752 196,196" style="fill-rule: nonzero;" id="path3267" fill="#21a4e7" fill-opacity="1" data-original-color="#ffcb7cff" stroke="none" stroke-opacity="1"/></g><g id="g3269" transform="translate(458,226)"><path d="m 0,0 c 0,83.947 -68.053,152 -152,152 -83.947,0 -152,-68.053 -152,-152 0,-83.947 68.053,-152 152,-152 83.947,0 152,68.053 152,152" style="fill-rule: nonzero;" id="path3271" fill="#ffffff" fill-opacity="1" data-original-color="#ffffffff" stroke="none" stroke-opacity="1"/></g><g id="g3273" transform="translate(330,226)"><path d="m 0,0 c 0,13.255 -10.745,24 -24,24 -13.255,0 -24,-10.745 -24,-24 0,-13.255 10.745,-24 24,-24 13.255,0 24,10.745 24,24" style="fill-rule: nonzero;" id="path3275" fill="#21a4e7" fill-opacity="1" data-original-color="#f5737fff" stroke="none" stroke-opacity="1"/></g><g id="g3277" transform="translate(409.5526,392.4429)"><path d="m 0,0 c -30.047,18.734 -65.536,29.557 -103.553,29.557 -51.756,0 -98.826,-20.06 -133.86,-52.83" style="stroke-linecap: round; stroke-linejoin: round; stroke-miterlimit: 10; stroke-dasharray: none;" id="path3279" fill="none" fill-opacity="1" stroke="#0f172a" stroke-opacity="1" data-original-stroke-color="#000000ff" stroke-width="20" data-original-stroke-width="20"/></g><g id="g3281" transform="translate(110.0599,230.8952)"><path d="m 0,0 c -0.04,-1.627 -0.06,-3.259 -0.06,-4.895 0,-108.248 87.752,-196 196,-196 108.248,0 196,87.752 196,196 0,37.848 -10.727,73.19 -29.308,103.152" style="stroke-linecap: round; stroke-linejoin: round; stroke-miterlimit: 10; stroke-dasharray: none;" id="path3283" fill="none" fill-opacity="1" stroke="#0f172a" stroke-opacity="1" data-original-stroke-color="#000000ff" stroke-width="20" data-original-stroke-width="20"/></g><g id="g3285" transform="translate(154.0174,228.3254)"><path d="m 0,0 c -0.012,-0.774 -0.017,-1.549 -0.017,-2.325 0,-83.948 68.052,-152 152,-152 83.947,0 152,68.052 152,152 0,83.947 -68.053,152 -152,152 -41.717,0 -79.508,-16.805 -106.973,-44.015" style="stroke-linecap: round; stroke-linejoin: round; stroke-miterlimit: 10; stroke-dasharray: none;" id="path3287" fill="none" fill-opacity="1" stroke="#0f172a" stroke-opacity="1" data-original-stroke-color="#000000ff" stroke-width="20" data-original-stroke-width="20"/></g><g id="g3289" transform="translate(330,226)"><path d="m 0,0 c 0,13.255 -10.745,24 -24,24 -13.255,0 -24,-10.745 -24,-24 0,-13.255 10.745,-24 24,-24 13.255,0 24,10.745 24,24 z" style="stroke-linecap: round; stroke-linejoin: round; stroke-miterlimit: 10; stroke-dasharray: none;" id="path3291" fill="none" fill-opacity="1" stroke="#0f172a" stroke-opacity="1" data-original-stroke-color="#000000ff" stroke-width="20" data-original-stroke-width="20"/></g><g id="g3293" transform="translate(322.9706,242.9706)"><path d="M 0,0 44.279,44.279" style="stroke-linecap: round; stroke-linejoin: round; stroke-miterlimit: 10; stroke-dasharray: none;" id="path3295" fill="none" fill-opacity="1" stroke="#0f172a" stroke-opacity="1" data-original-stroke-color="#000000ff" stroke-width="20" data-original-stroke-width="20"/></g><g id="g3297" transform="translate(244.75,482)"><path d="M 0,0 H 122.5" style="stroke-linecap: round; stroke-linejoin: round; stroke-miterlimit: 10; stroke-dasharray: none;" id="path3299" fill="none" fill-opacity="1" stroke="#0f172a" stroke-opacity="1" data-original-stroke-color="#000000ff" stroke-width="20" data-original-stroke-width="20"/></g><g id="g3301" transform="translate(332,422)"><path d="M 0,0 V 60 H -52 V 0" style="stroke-linecap: round; stroke-linejoin: round; stroke-miterlimit: 10; stroke-dasharray: none;" id="path3303" fill="none" fill-opacity="1" stroke="#0f172a" stroke-opacity="1" data-original-stroke-color="#000000ff" stroke-width="20" data-original-stroke-width="20"/></g><g id="g3305" transform="translate(306,378)"><path d="M 0,0 V -23" style="stroke-linecap: round; stroke-linejoin: round; stroke-miterlimit: 10; stroke-dasharray: none;" id="path3307" fill="none" fill-opacity="1" stroke="#0f172a" stroke-opacity="1" data-original-stroke-color="#000000ff" stroke-width="20" data-original-stroke-width="20"/></g><g id="g3309" transform="translate(306,74)"><path d="M 0,0 V 23" style="stroke-linecap: round; stroke-linejoin: round; stroke-miterlimit: 10; stroke-dasharray: none;" id="path3311" fill="none" fill-opacity="1" stroke="#0f172a" stroke-opacity="1" data-original-stroke-color="#000000ff" stroke-width="20" data-original-stroke-width="20"/></g><g id="g3313" transform="translate(458,226)"><path d="M 0,0 H -23" style="stroke-linecap: round; stroke-linejoin: round; stroke-miterlimit: 10; stroke-dasharray: none;" id="path3315" fill="none" fill-opacity="1" stroke="#0f172a" stroke-opacity="1" data-original-stroke-color="#000000ff" stroke-width="20" data-original-stroke-width="20"/></g><g id="g3317" transform="translate(187.3233,247.1589)"><path d="m 0,0 v 0 c -28.212,-28.212 -73.952,-28.212 -102.164,0 v 0 c -25.969,25.969 -28.321,67.29 -5.466,96.038 L -51.082,167.166 5.466,96.038 C 28.321,67.29 25.969,25.969 0,0" style="fill-rule: nonzero;" id="path3319" fill="#91def5" fill-opacity="1" data-original-color="#91def5ff" stroke="none" stroke-opacity="1"/></g><g id="g3321" transform="translate(187.3233,247.1589)"><path d="m 0,0 v 0 c -28.212,-28.212 -73.952,-28.212 -102.164,0 v 0 c -25.969,25.969 -28.321,67.29 -5.466,96.038 L -51.082,167.166 5.466,96.038 C 28.321,67.29 25.969,25.969 0,0 Z" style="stroke-linecap: round; stroke-linejoin: round; stroke-miterlimit: 10; stroke-dasharray: none;" id="path3323" fill="none" fill-opacity="1" stroke="#0f172a" stroke-opacity="1" data-original-stroke-color="#000000ff" stroke-width="20" data-original-stroke-width="20"/></g><g id="g3325" transform="translate(110,178)"><path d="M 0,0 H -62.333" style="stroke-linecap: round; stroke-linejoin: round; stroke-miterlimit: 10; stroke-dasharray: none;" id="path3327" fill="none" fill-opacity="1" stroke="#0f172a" stroke-opacity="1" data-original-stroke-color="#000000ff" stroke-width="20" data-original-stroke-width="20"/></g><g id="g3329" transform="translate(110,82)"><path d="M 0,0 H -62.333" style="stroke-linecap: round; stroke-linejoin: round; stroke-miterlimit: 10; stroke-dasharray: none;" id="path3331" fill="none" fill-opacity="1" stroke="#0f172a" stroke-opacity="1" data-original-stroke-color="#000000ff" stroke-width="20" data-original-stroke-width="20"/></g><g id="g3333" transform="translate(86,130)"><path d="M 0,0 H -76" style="stroke-linecap: round; stroke-linejoin: round; stroke-miterlimit: 10; stroke-dasharray: none;" id="path3335" fill="none" fill-opacity="1" stroke="#0f172a" stroke-opacity="1" data-original-stroke-color="#000000ff" stroke-width="20" data-original-stroke-width="20"/></g><g id="g3337" transform="translate(444.7592,364.424)"><path d="M 0,0 V 0" style="stroke-linecap: round; stroke-linejoin: round; stroke-miterlimit: 10; stroke-dasharray: none;" id="path3339" fill="none" fill-opacity="1" stroke="#0f172a" stroke-opacity="1" data-original-stroke-color="#000000ff" stroke-width="20" data-original-stroke-width="20"/></g></g></g></g></g></svg>